<svg width="49" height="40" viewBox="0 0 49 40" fill="none" xmlns="http://www.w3.org/2000/svg">
<path d="M43.5045 0C41.2188 0 39.2645 1.28906 38.4658 3.125H10.4768C9.67806 1.28906 7.72375 0 5.43807 0C2.43863 0 0 2.24219 0 5C0 7.10156 1.402 8.89844 3.39879 9.63281V30.3594C1.402 31.1016 0 32.8984 0 34.9922C0 37.75 2.43863 39.9922 5.43807 39.9922C7.72375 39.9922 9.67806 38.7031 10.4768 36.8672H38.4573C39.2645 38.7031 41.2188 39.9922 43.496 39.9922C46.4955 39.9922 48.9341 37.75 48.9341 34.9922C48.9341 32.8906 47.5321 31.0937 45.5353 30.3594V9.63281C47.5321 8.89062 48.9341 7.09375 48.9341 5C48.9341 2.24219 46.4955 0 43.496 0H43.5045Z" fill="white"/>
<path d="M16.3142 13.75H23.7915V18.125H16.3142V13.75ZM15.6344 10.625C14.1305 10.625 12.9154 11.7422 12.9154 13.125V18.75C12.9154 20.1328 14.1305 21.25 15.6344 21.25H24.4713C25.9753 21.25 27.1903 20.1328 27.1903 18.75V13.125C27.1903 11.7422 25.9753 10.625 24.4713 10.625H15.6344ZM21.7523 25V26.875C21.7523 28.2578 22.9673 29.375 24.4713 29.375H33.3082C34.8121 29.375 36.0272 28.2578 36.0272 26.875V21.25C36.0272 19.8672 34.8121 18.75 33.3082 18.75H31.2689C31.2689 19.8906 30.9375 20.9531 30.3597 21.875H32.6284V26.25H25.1511V24.9687C24.9301 24.9922 24.7007 25 24.4713 25H21.7523Z" fill="currentColor"/>
</svg>
