<svg width="142" height="20" viewBox="0 0 142 20" fill="none" xmlns="http://www.w3.org/2000/svg">
<path d="M11.6113 7.56836V13.2031C11.39 13.4701 11.0482 13.7598 10.5859 14.0723C10.1237 14.3783 9.52799 14.6419 8.79883 14.8633C8.06966 15.0846 7.1875 15.1953 6.15234 15.1953C5.23438 15.1953 4.39779 15.0456 3.64258 14.7461C2.88737 14.4401 2.23633 13.9941 1.68945 13.4082C1.14909 12.8223 0.732422 12.1061 0.439453 11.2598C0.146484 10.4069 0 9.43359 0 8.33984V7.45117C0 6.35742 0.139974 5.38411 0.419922 4.53125C0.70638 3.67839 1.11328 2.95898 1.64062 2.37305C2.16797 1.78711 2.79622 1.34115 3.52539 1.03516C4.25456 0.729167 5.0651 0.576172 5.95703 0.576172C7.19401 0.576172 8.20964 0.777995 9.00391 1.18164C9.79818 1.57878 10.4036 2.13216 10.8203 2.8418C11.2435 3.54492 11.5039 4.35221 11.6016 5.26367H8.75977C8.68815 4.7819 8.55143 4.36198 8.34961 4.00391C8.14779 3.64583 7.85807 3.36589 7.48047 3.16406C7.10938 2.96224 6.6276 2.86133 6.03516 2.86133C5.54688 2.86133 5.11068 2.96224 4.72656 3.16406C4.34896 3.35938 4.02995 3.64909 3.76953 4.0332C3.50911 4.41732 3.31055 4.89258 3.17383 5.45898C3.03711 6.02539 2.96875 6.68294 2.96875 7.43164V8.33984C2.96875 9.08203 3.04036 9.73958 3.18359 10.3125C3.32682 10.8789 3.53841 11.3574 3.81836 11.748C4.10482 12.1322 4.45638 12.4219 4.87305 12.6172C5.28971 12.8125 5.77474 12.9102 6.32812 12.9102C6.79036 12.9102 7.17448 12.8711 7.48047 12.793C7.79297 12.7148 8.04362 12.6204 8.23242 12.5098C8.42773 12.3926 8.57747 12.2819 8.68164 12.1777V9.6582H6.00586V7.56836H11.6113ZM21.377 11.2793C21.377 11.0254 21.3379 10.7975 21.2598 10.5957C21.1882 10.3874 21.0514 10.1986 20.8496 10.0293C20.6478 9.85352 20.3646 9.68099 20 9.51172C19.6354 9.34245 19.1634 9.16667 18.584 8.98438C17.9395 8.77604 17.3275 8.54167 16.748 8.28125C16.1751 8.02083 15.6673 7.7181 15.2246 7.37305C14.7884 7.02148 14.4434 6.61458 14.1895 6.15234C13.9421 5.6901 13.8184 5.15299 13.8184 4.54102C13.8184 3.94857 13.9486 3.41146 14.209 2.92969C14.4694 2.44141 14.834 2.02474 15.3027 1.67969C15.7715 1.32812 16.3249 1.05794 16.9629 0.869141C17.6074 0.680339 18.3138 0.585938 19.082 0.585938C20.1302 0.585938 21.0449 0.77474 21.8262 1.15234C22.6074 1.52995 23.2129 2.04753 23.6426 2.70508C24.0788 3.36263 24.2969 4.11458 24.2969 4.96094H21.3867C21.3867 4.54427 21.2988 4.17969 21.123 3.86719C20.9538 3.54818 20.6934 3.29753 20.3418 3.11523C19.9967 2.93294 19.5605 2.8418 19.0332 2.8418C18.5254 2.8418 18.1022 2.91992 17.7637 3.07617C17.4251 3.22591 17.1712 3.43099 17.002 3.69141C16.8327 3.94531 16.748 4.23177 16.748 4.55078C16.748 4.79167 16.8066 5.00977 16.9238 5.20508C17.0475 5.40039 17.2298 5.58268 17.4707 5.75195C17.7116 5.92122 18.0078 6.08073 18.3594 6.23047C18.7109 6.38021 19.1178 6.52669 19.5801 6.66992C20.3548 6.9043 21.0352 7.16797 21.6211 7.46094C22.2135 7.75391 22.7083 8.08268 23.1055 8.44727C23.5026 8.81185 23.8021 9.22526 24.0039 9.6875C24.2057 10.1497 24.3066 10.6738 24.3066 11.2598C24.3066 11.8783 24.1862 12.4316 23.9453 12.9199C23.7044 13.4082 23.3561 13.8216 22.9004 14.1602C22.4447 14.4987 21.901 14.7559 21.2695 14.9316C20.638 15.1074 19.9316 15.1953 19.1504 15.1953C18.4473 15.1953 17.7539 15.1042 17.0703 14.9219C16.3867 14.7331 15.765 14.4499 15.2051 14.0723C14.6517 13.6947 14.209 13.2129 13.877 12.627C13.5449 12.041 13.3789 11.3477 13.3789 10.5469H16.3184C16.3184 10.9896 16.3867 11.3639 16.5234 11.6699C16.6602 11.9759 16.8522 12.2233 17.0996 12.4121C17.3535 12.6009 17.653 12.7376 17.998 12.8223C18.3496 12.9069 18.7337 12.9492 19.1504 12.9492C19.6582 12.9492 20.0749 12.8776 20.4004 12.7344C20.7324 12.5911 20.9766 12.3926 21.1328 12.1387C21.2956 11.8848 21.377 11.5983 21.377 11.2793ZM39.5215 10.2832H42.4414C42.3828 11.2402 42.1191 12.0898 41.6504 12.832C41.1882 13.5742 40.5404 14.1536 39.707 14.5703C38.8802 14.987 37.8841 15.1953 36.7188 15.1953C35.8073 15.1953 34.9902 15.0391 34.2676 14.7266C33.5449 14.4076 32.9264 13.9518 32.4121 13.3594C31.9043 12.7669 31.5169 12.0508 31.25 11.2109C30.9831 10.3711 30.8496 9.43034 30.8496 8.38867V7.40234C30.8496 6.36068 30.9863 5.41992 31.2598 4.58008C31.5397 3.73372 31.9368 3.01432 32.4512 2.42188C32.972 1.82943 33.5938 1.3737 34.3164 1.05469C35.0391 0.735677 35.8464 0.576172 36.7383 0.576172C37.9232 0.576172 38.9225 0.791016 39.7363 1.2207C40.5566 1.65039 41.1914 2.24284 41.6406 2.99805C42.0964 3.75326 42.3698 4.61263 42.4609 5.57617H39.5312C39.4987 5.00326 39.3848 4.51823 39.1895 4.12109C38.9941 3.71745 38.6979 3.41471 38.3008 3.21289C37.9102 3.00456 37.3893 2.90039 36.7383 2.90039C36.25 2.90039 35.8236 2.99154 35.459 3.17383C35.0944 3.35612 34.7884 3.63281 34.541 4.00391C34.2936 4.375 34.1081 4.84375 33.9844 5.41016C33.8672 5.97005 33.8086 6.6276 33.8086 7.38281V8.38867C33.8086 9.12435 33.8639 9.77214 33.9746 10.332C34.0853 10.8854 34.2546 11.3542 34.4824 11.7383C34.7168 12.1159 35.0163 12.4023 35.3809 12.5977C35.752 12.7865 36.1979 12.8809 36.7188 12.8809C37.3307 12.8809 37.8353 12.7832 38.2324 12.5879C38.6296 12.3926 38.9323 12.1029 39.1406 11.7188C39.3555 11.3346 39.4824 10.8561 39.5215 10.2832ZM43.7402 9.82422V9.61914C43.7402 8.8444 43.8509 8.13151 44.0723 7.48047C44.2936 6.82292 44.6159 6.25326 45.0391 5.77148C45.4622 5.28971 45.9831 4.91536 46.6016 4.64844C47.2201 4.375 47.9297 4.23828 48.7305 4.23828C49.5312 4.23828 50.2441 4.375 50.8691 4.64844C51.4941 4.91536 52.0182 5.28971 52.4414 5.77148C52.8711 6.25326 53.1966 6.82292 53.418 7.48047C53.6393 8.13151 53.75 8.8444 53.75 9.61914V9.82422C53.75 10.5924 53.6393 11.3053 53.418 11.9629C53.1966 12.6139 52.8711 13.1836 52.4414 13.6719C52.0182 14.1536 51.4974 14.528 50.8789 14.7949C50.2604 15.0618 49.5508 15.1953 48.75 15.1953C47.9492 15.1953 47.2363 15.0618 46.6113 14.7949C45.9928 14.528 45.4688 14.1536 45.0391 13.6719C44.6159 13.1836 44.2936 12.6139 44.0723 11.9629C43.8509 11.3053 43.7402 10.5924 43.7402 9.82422ZM46.5527 9.61914V9.82422C46.5527 10.2669 46.5918 10.6803 46.6699 11.0645C46.748 11.4486 46.8717 11.7871 47.041 12.0801C47.2168 12.3665 47.4447 12.5911 47.7246 12.7539C48.0046 12.9167 48.3464 12.998 48.75 12.998C49.1406 12.998 49.4759 12.9167 49.7559 12.7539C50.0358 12.5911 50.2604 12.3665 50.4297 12.0801C50.599 11.7871 50.7227 11.4486 50.8008 11.0645C50.8854 10.6803 50.9277 10.2669 50.9277 9.82422V9.61914C50.9277 9.18945 50.8854 8.78581 50.8008 8.4082C50.7227 8.02409 50.5957 7.68555 50.4199 7.39258C50.2507 7.0931 50.026 6.85872 49.7461 6.68945C49.4661 6.52018 49.1276 6.43555 48.7305 6.43555C48.3333 6.43555 47.9948 6.52018 47.7148 6.68945C47.4414 6.85872 47.2168 7.0931 47.041 7.39258C46.8717 7.68555 46.748 8.02409 46.6699 8.4082C46.5918 8.78581 46.5527 9.18945 46.5527 9.61914ZM58.2324 6.68945V15H55.4199V4.43359H58.0566L58.2324 6.68945ZM57.8223 9.3457H57.0605C57.0605 8.56445 57.1615 7.86133 57.3633 7.23633C57.5651 6.60482 57.8483 6.06771 58.2129 5.625C58.5775 5.17578 59.0104 4.83398 59.5117 4.59961C60.0195 4.35872 60.5859 4.23828 61.2109 4.23828C61.7057 4.23828 62.1582 4.3099 62.5684 4.45312C62.9785 4.59635 63.3301 4.82422 63.623 5.13672C63.9225 5.44922 64.1504 5.86263 64.3066 6.37695C64.4694 6.89128 64.5508 7.51953 64.5508 8.26172V15H61.7188V8.25195C61.7188 7.7832 61.6536 7.41862 61.5234 7.1582C61.3932 6.89779 61.2012 6.71549 60.9473 6.61133C60.6999 6.50065 60.3939 6.44531 60.0293 6.44531C59.6517 6.44531 59.3229 6.52018 59.043 6.66992C58.7695 6.81966 58.5417 7.02799 58.3594 7.29492C58.1836 7.55534 58.0501 7.86133 57.959 8.21289C57.8678 8.56445 57.8223 8.94206 57.8223 9.3457ZM72.4023 12.0801C72.4023 11.8783 72.3438 11.696 72.2266 11.5332C72.1094 11.3704 71.8913 11.2207 71.5723 11.084C71.2598 10.9408 70.8073 10.8105 70.2148 10.6934C69.681 10.5762 69.1829 10.4297 68.7207 10.2539C68.265 10.0716 67.8678 9.85352 67.5293 9.59961C67.1973 9.3457 66.9368 9.04622 66.748 8.70117C66.5592 8.34961 66.4648 7.94922 66.4648 7.5C66.4648 7.05729 66.5592 6.64062 66.748 6.25C66.9434 5.85938 67.2201 5.51432 67.5781 5.21484C67.9427 4.90885 68.3854 4.67122 68.9062 4.50195C69.4336 4.32617 70.026 4.23828 70.6836 4.23828C71.6016 4.23828 72.3893 4.38477 73.0469 4.67773C73.7109 4.9707 74.2188 5.37435 74.5703 5.88867C74.9284 6.39648 75.1074 6.97591 75.1074 7.62695H72.2949C72.2949 7.35352 72.2363 7.10938 72.1191 6.89453C72.0085 6.67318 71.8327 6.50065 71.5918 6.37695C71.3574 6.24674 71.0514 6.18164 70.6738 6.18164C70.3613 6.18164 70.0911 6.23698 69.8633 6.34766C69.6354 6.45182 69.4596 6.59505 69.3359 6.77734C69.2188 6.95312 69.1602 7.14844 69.1602 7.36328C69.1602 7.52604 69.1927 7.67253 69.2578 7.80273C69.3294 7.92643 69.4434 8.04036 69.5996 8.14453C69.7559 8.2487 69.9577 8.34635 70.2051 8.4375C70.459 8.52214 70.7715 8.60026 71.1426 8.67188C71.9043 8.82812 72.5846 9.0332 73.1836 9.28711C73.7826 9.53451 74.2578 9.87305 74.6094 10.3027C74.9609 10.7259 75.1367 11.2826 75.1367 11.9727C75.1367 12.4414 75.0326 12.8711 74.8242 13.2617C74.6159 13.6523 74.3164 13.9941 73.9258 14.2871C73.5352 14.5736 73.0664 14.7982 72.5195 14.9609C71.9792 15.1172 71.3704 15.1953 70.6934 15.1953C69.7103 15.1953 68.877 15.0195 68.1934 14.668C67.5163 14.3164 67.002 13.8704 66.6504 13.3301C66.3053 12.7832 66.1328 12.2233 66.1328 11.6504H68.7988C68.8118 12.0345 68.9095 12.3438 69.0918 12.5781C69.2806 12.8125 69.5182 12.9818 69.8047 13.0859C70.0977 13.1901 70.4134 13.2422 70.752 13.2422C71.1165 13.2422 71.4193 13.1934 71.6602 13.0957C71.901 12.9915 72.0833 12.8548 72.207 12.6855C72.3372 12.5098 72.4023 12.3079 72.4023 12.0801ZM83.2129 12.4707V4.43359H86.0254V15H83.3789L83.2129 12.4707ZM83.5254 10.3027L84.3555 10.2832C84.3555 10.9863 84.2741 11.6406 84.1113 12.2461C83.9486 12.8451 83.7044 13.3659 83.3789 13.8086C83.0534 14.2448 82.6432 14.5866 82.1484 14.834C81.6536 15.0749 81.071 15.1953 80.4004 15.1953C79.8861 15.1953 79.4108 15.1237 78.9746 14.9805C78.5449 14.8307 78.1738 14.5996 77.8613 14.2871C77.5553 13.9681 77.3145 13.5612 77.1387 13.0664C76.9694 12.5651 76.8848 11.9629 76.8848 11.2598V4.43359H79.6973V11.2793C79.6973 11.5918 79.7331 11.8555 79.8047 12.0703C79.8828 12.2852 79.9902 12.4609 80.127 12.5977C80.2637 12.7344 80.4232 12.832 80.6055 12.8906C80.7943 12.9492 81.0026 12.9785 81.2305 12.9785C81.8099 12.9785 82.2656 12.8613 82.5977 12.627C82.9362 12.3926 83.1738 12.0736 83.3105 11.6699C83.4538 11.2598 83.5254 10.804 83.5254 10.3027ZM91.1426 0V15H88.3203V0H91.1426ZM98.6426 4.43359V6.42578H92.4902V4.43359H98.6426ZM94.0137 1.82617H96.8262V11.8164C96.8262 12.1224 96.8652 12.3568 96.9434 12.5195C97.028 12.6823 97.1517 12.7962 97.3145 12.8613C97.4772 12.9199 97.6823 12.9492 97.9297 12.9492C98.1055 12.9492 98.2617 12.9427 98.3984 12.9297C98.5417 12.9102 98.6621 12.8906 98.7598 12.8711L98.7695 14.9414C98.5286 15.0195 98.2682 15.0814 97.9883 15.127C97.7083 15.1725 97.3991 15.1953 97.0605 15.1953C96.4421 15.1953 95.9017 15.0944 95.4395 14.8926C94.9837 14.6842 94.6322 14.3522 94.3848 13.8965C94.1374 13.4408 94.0137 12.8418 94.0137 12.0996V1.82617ZM105.947 12.6172V7.91016C105.947 7.57161 105.892 7.2819 105.781 7.04102C105.671 6.79362 105.498 6.60156 105.264 6.46484C105.036 6.32812 104.74 6.25977 104.375 6.25977C104.062 6.25977 103.792 6.3151 103.564 6.42578C103.337 6.52995 103.161 6.68294 103.037 6.88477C102.913 7.08008 102.852 7.3112 102.852 7.57812H100.039C100.039 7.12891 100.143 6.70247 100.352 6.29883C100.56 5.89518 100.863 5.54036 101.26 5.23438C101.657 4.92188 102.129 4.67773 102.676 4.50195C103.229 4.32617 103.848 4.23828 104.531 4.23828C105.352 4.23828 106.081 4.375 106.719 4.64844C107.357 4.92188 107.858 5.33203 108.223 5.87891C108.594 6.42578 108.779 7.10938 108.779 7.92969V12.4512C108.779 13.0306 108.815 13.5059 108.887 13.877C108.958 14.2415 109.062 14.5605 109.199 14.834V15H106.357C106.221 14.7135 106.117 14.3555 106.045 13.9258C105.98 13.4896 105.947 13.0534 105.947 12.6172ZM106.318 8.56445L106.338 10.1562H104.766C104.395 10.1562 104.072 10.1986 103.799 10.2832C103.525 10.3678 103.301 10.4883 103.125 10.6445C102.949 10.7943 102.819 10.9701 102.734 11.1719C102.656 11.3737 102.617 11.5951 102.617 11.8359C102.617 12.0768 102.673 12.2949 102.783 12.4902C102.894 12.679 103.053 12.8288 103.262 12.9395C103.47 13.0436 103.714 13.0957 103.994 13.0957C104.417 13.0957 104.785 13.0111 105.098 12.8418C105.41 12.6725 105.651 12.4642 105.82 12.2168C105.996 11.9694 106.087 11.735 106.094 11.5137L106.836 12.7051C106.732 12.972 106.589 13.2487 106.406 13.5352C106.23 13.8216 106.006 14.0918 105.732 14.3457C105.459 14.5931 105.13 14.7982 104.746 14.9609C104.362 15.1172 103.906 15.1953 103.379 15.1953C102.708 15.1953 102.1 15.0618 101.553 14.7949C101.012 14.5215 100.583 14.1471 100.264 13.6719C99.9512 13.1901 99.7949 12.6432 99.7949 12.0312C99.7949 11.4779 99.8991 10.9863 100.107 10.5566C100.316 10.127 100.622 9.76562 101.025 9.47266C101.436 9.17318 101.947 8.94857 102.559 8.79883C103.171 8.64258 103.88 8.56445 104.688 8.56445H106.318ZM113.701 6.68945V15H110.889V4.43359H113.525L113.701 6.68945ZM113.291 9.3457H112.529C112.529 8.56445 112.63 7.86133 112.832 7.23633C113.034 6.60482 113.317 6.06771 113.682 5.625C114.046 5.17578 114.479 4.83398 114.98 4.59961C115.488 4.35872 116.055 4.23828 116.68 4.23828C117.174 4.23828 117.627 4.3099 118.037 4.45312C118.447 4.59635 118.799 4.82422 119.092 5.13672C119.391 5.44922 119.619 5.86263 119.775 6.37695C119.938 6.89128 120.02 7.51953 120.02 8.26172V15H117.188V8.25195C117.188 7.7832 117.122 7.41862 116.992 7.1582C116.862 6.89779 116.67 6.71549 116.416 6.61133C116.169 6.50065 115.863 6.44531 115.498 6.44531C115.12 6.44531 114.792 6.52018 114.512 6.66992C114.238 6.81966 114.01 7.02799 113.828 7.29492C113.652 7.55534 113.519 7.86133 113.428 8.21289C113.337 8.56445 113.291 8.94206 113.291 9.3457ZM126.523 12.998C126.868 12.998 127.174 12.9329 127.441 12.8027C127.708 12.666 127.917 12.4772 128.066 12.2363C128.223 11.9889 128.304 11.6992 128.311 11.3672H130.957C130.951 12.1094 130.752 12.7702 130.361 13.3496C129.971 13.9225 129.447 14.375 128.789 14.707C128.132 15.0326 127.396 15.1953 126.582 15.1953C125.762 15.1953 125.046 15.0586 124.434 14.7852C123.828 14.5117 123.324 14.1341 122.92 13.6523C122.516 13.1641 122.214 12.5977 122.012 11.9531C121.81 11.3021 121.709 10.6055 121.709 9.86328V9.58008C121.709 8.83138 121.81 8.13477 122.012 7.49023C122.214 6.83919 122.516 6.27279 122.92 5.79102C123.324 5.30273 123.828 4.92188 124.434 4.64844C125.039 4.375 125.749 4.23828 126.562 4.23828C127.428 4.23828 128.187 4.4043 128.838 4.73633C129.495 5.06836 130.01 5.54362 130.381 6.16211C130.758 6.77409 130.951 7.5 130.957 8.33984H128.311C128.304 7.98828 128.229 7.66927 128.086 7.38281C127.949 7.09635 127.747 6.86849 127.48 6.69922C127.22 6.52344 126.898 6.43555 126.514 6.43555C126.104 6.43555 125.768 6.52344 125.508 6.69922C125.247 6.86849 125.046 7.10286 124.902 7.40234C124.759 7.69531 124.658 8.0306 124.6 8.4082C124.548 8.7793 124.521 9.16992 124.521 9.58008V9.86328C124.521 10.2734 124.548 10.6673 124.6 11.0449C124.652 11.4225 124.749 11.7578 124.893 12.0508C125.042 12.3438 125.247 12.5749 125.508 12.7441C125.768 12.9134 126.107 12.998 126.523 12.998ZM135.723 13.8086L138.525 4.43359H141.543L137.295 16.5918C137.204 16.8587 137.08 17.1452 136.924 17.4512C136.774 17.7572 136.569 18.0469 136.309 18.3203C136.055 18.6003 135.732 18.8281 135.342 19.0039C134.958 19.1797 134.486 19.2676 133.926 19.2676C133.659 19.2676 133.441 19.2513 133.271 19.2188C133.102 19.1862 132.9 19.1406 132.666 19.082V17.0215C132.738 17.0215 132.812 17.0215 132.891 17.0215C132.969 17.028 133.044 17.0312 133.115 17.0312C133.486 17.0312 133.789 16.9889 134.023 16.9043C134.258 16.8197 134.447 16.6895 134.59 16.5137C134.733 16.3444 134.847 16.123 134.932 15.8496L135.723 13.8086ZM134.551 4.43359L136.846 12.0898L137.246 15.0684L135.332 15.2734L131.533 4.43359H134.551Z" fill="#EA6D00"/>
</svg>
