<svg width="46" height="42" viewBox="0 0 46 42" fill="none" xmlns="http://www.w3.org/2000/svg">
<path d="M19.4138 6.29999C17.5224 6.29999 15.9879 7.71093 15.9879 9.44999V13.65C15.9879 15.3891 17.5224 16.8 19.4138 16.8H20.5558V18.9H4.56792C3.30459 18.9 2.28394 19.8384 2.28394 21C2.28394 22.1616 3.30459 23.1 4.56792 23.1H11.4199V25.2H10.2779C8.38647 25.2 6.85191 26.6109 6.85191 28.35V32.55C6.85191 34.2891 8.38647 35.7 10.2779 35.7H17.1299C19.0213 35.7 20.5558 34.2891 20.5558 32.55V28.35C20.5558 26.6109 19.0213 25.2 17.1299 25.2H15.9879V23.1H29.6918V25.2H28.5498C26.6584 25.2 25.1238 26.6109 25.1238 28.35V32.55C25.1238 34.2891 26.6584 35.7 28.5498 35.7H35.4018C37.2932 35.7 38.8277 34.2891 38.8277 32.55V28.35C38.8277 26.6109 37.2932 25.2 35.4018 25.2H34.2598V23.1H41.1117C42.3751 23.1 43.3957 22.1616 43.3957 21C43.3957 19.8384 42.3751 18.9 41.1117 18.9H25.1238V16.8H26.2658C28.1572 16.8 29.6918 15.3891 29.6918 13.65V9.44999C29.6918 7.71093 28.1572 6.29999 26.2658 6.29999H19.4138Z" fill="white"/>
<path d="M19.9848 9.97499H25.6948V13.125H19.9848V9.97499ZM19.4138 6.29999C17.5224 6.29999 15.9879 7.71093 15.9879 9.44999V13.65C15.9879 15.3891 17.5224 16.8 19.4138 16.8H20.5558V18.9H4.56792C3.30459 18.9 2.28394 19.8384 2.28394 21C2.28394 22.1616 3.30459 23.1 4.56792 23.1H11.4199V25.2H10.2779C8.38647 25.2 6.85191 26.6109 6.85191 28.35V32.55C6.85191 34.2891 8.38647 35.7 10.2779 35.7H17.1299C19.0213 35.7 20.5558 34.2891 20.5558 32.55V28.35C20.5558 26.6109 19.0213 25.2 17.1299 25.2H15.9879V23.1H29.6918V25.2H28.5498C26.6584 25.2 25.1238 26.6109 25.1238 28.35V32.55C25.1238 34.2891 26.6584 35.7 28.5498 35.7H35.4018C37.2932 35.7 38.8277 34.2891 38.8277 32.55V28.35C38.8277 26.6109 37.2932 25.2 35.4018 25.2H34.2598V23.1H41.1117C42.3751 23.1 43.3957 22.1616 43.3957 21C43.3957 19.8384 42.3751 18.9 41.1117 18.9H25.1238V16.8H26.2658C28.1572 16.8 29.6918 15.3891 29.6918 13.65V9.44999C29.6918 7.71093 28.1572 6.29999 26.2658 6.29999H19.4138ZM34.2598 28.875H34.8308V32.025H29.1208V28.875H34.2598ZM15.9879 28.875H16.5589V32.025H10.8489V28.875H15.9879Z" fill="currentColor"/>
</svg>
