<svg width="127" height="145" viewBox="0 0 127 145" fill="none" xmlns="http://www.w3.org/2000/svg">
<path d="M27.9473 144.301C22.235 144.301 17.5905 143.286 14.0137 141.258C10.4368 139.176 7.6875 136.24 5.76562 132.449C3.84375 128.659 2.50911 124.201 1.76172 119.076C1.06771 113.898 0.720703 108.186 0.720703 101.939V88.2461H16.8164V102.58C16.8164 112.456 17.5104 119.53 18.8984 123.801C20.3398 128.018 23.4095 130.127 28.1074 130.127C31.3639 130.127 33.7396 129.38 35.2344 127.885C36.7826 126.337 37.7702 123.881 38.1973 120.518C38.6243 117.154 38.8379 112.723 38.8379 107.225C38.8379 100.925 37.7168 95.5065 35.4746 90.9688C33.2858 86.431 30.1094 82.0801 25.9453 77.916L16.7363 68.707C14.0671 65.9844 11.4512 63.0215 8.88867 59.8184C6.32617 56.5618 4.19076 52.8783 2.48242 48.7676C0.827474 44.6569 0 39.959 0 34.6738C0 27.5736 0.747396 21.4342 2.24219 16.2559C3.73698 11.0775 6.45964 7.07357 10.4102 4.24414C14.3607 1.41471 19.9661 0 27.2266 0C32.9388 0 37.5033 0.98763 40.9199 2.96289C44.39 4.93815 46.9792 7.76758 48.6875 11.4512C50.4492 15.0814 51.597 19.4056 52.1309 24.4238C52.7181 29.4421 53.0117 34.9941 53.0117 41.0801V49.4082H37.1562V39.959C37.1562 34.2467 36.916 29.4954 36.4355 25.7051C36.0085 21.8613 35.1009 18.9785 33.7129 17.0566C32.3249 15.1348 30.1628 14.1738 27.2266 14.1738C24.5573 14.1738 22.3685 14.8411 20.6602 16.1758C19.0052 17.457 17.804 19.459 17.0566 22.1816C16.3092 24.9043 15.9355 28.401 15.9355 32.6719C15.9355 36.4089 16.3893 39.5052 17.2969 41.9609C18.2044 44.3633 19.5658 46.6055 21.3809 48.6875C23.2493 50.7695 25.5182 53.2253 28.1875 56.0547L37.7969 66.2246C42.8685 71.5098 47.0059 77.4355 50.209 84.002C53.4655 90.515 55.0938 98.0957 55.0938 106.744C55.0938 114.538 54.3197 121.238 52.7715 126.844C51.2767 132.449 48.5807 136.773 44.6836 139.816C40.7865 142.806 35.2077 144.301 27.9473 144.301ZM71.5098 142.699V1.76172H98.0156C105.383 1.76172 111.122 3.3099 115.232 6.40625C119.343 9.44922 122.226 13.8268 123.881 19.5391C125.536 25.2513 126.363 32.0846 126.363 40.0391L126.443 101.939C126.443 111.442 125.482 119.21 123.561 125.242C121.692 131.221 118.622 135.626 114.352 138.455C110.134 141.285 104.502 142.699 97.4551 142.699H71.5098ZM88.0059 129.326H96.4941C99.4837 129.326 101.966 128.686 103.941 127.404C105.917 126.07 107.385 123.614 108.346 120.037C109.36 116.46 109.867 111.282 109.867 104.502V39.6387C109.867 30.7767 108.826 24.4505 106.744 20.6602C104.662 16.8164 101.245 14.8945 96.4941 14.8945H88.0059V129.326Z" fill="white"/>
</svg>
