<svg width="51" height="56" viewBox="0 0 51 56" fill="none" xmlns="http://www.w3.org/2000/svg">
<g clip-path="url(#clip0_9_1486)">
<path d="M31.6587 49.5223C31.4619 53.1625 29.8724 56 27.9448 56C26.0172 56 24.4227 53.1625 24.2309 49.5223C24.2158 49.2738 27.859 45.7683 27.859 45.7683C27.859 45.7683 31.6738 49.279 31.6587 49.5275V49.5223Z" fill="#F38299"/>
<path d="M18.6752 30.6796C20.5954 30.6796 22.1519 29.0823 22.1519 27.112C22.1519 25.1416 20.5954 23.5443 18.6752 23.5443C16.7551 23.5443 15.1985 25.1416 15.1985 27.112C15.1985 29.0823 16.7551 30.6796 18.6752 30.6796Z" fill="#231F20"/>
<path d="M37.0982 30.6796C39.0183 30.6796 40.5749 29.0823 40.5749 27.112C40.5749 25.1416 39.0183 23.5443 37.0982 23.5443C35.1781 23.5443 33.6215 25.1416 33.6215 27.112C33.6215 29.0823 35.1781 30.6796 37.0982 30.6796Z" fill="#231F20"/>
<path d="M19.6492 27.3346C20.1898 27.3346 20.6281 26.8849 20.6281 26.3301C20.6281 25.7753 20.1898 25.3256 19.6492 25.3256C19.1085 25.3256 18.6702 25.7753 18.6702 26.3301C18.6702 26.8849 19.1085 27.3346 19.6492 27.3346Z" fill="#D9D9D9"/>
<path d="M38.5263 27.3346C39.0669 27.3346 39.5052 26.8849 39.5052 26.3301C39.5052 25.7753 39.0669 25.3256 38.5263 25.3256C37.9856 25.3256 37.5474 25.7753 37.5474 26.3301C37.5474 26.8849 37.9856 27.3346 38.5263 27.3346Z" fill="#D9D9D9"/>
<path d="M42.2502 45.6129C42.1392 45.6129 42.0282 45.5767 41.9323 45.499C39.5859 43.5469 36.2858 43.0602 36.2556 43.055C35.978 43.0136 35.7863 42.7547 35.8267 42.4699C35.867 42.1851 36.1193 41.9883 36.3969 42.0298C36.5432 42.0505 39.9997 42.5579 42.5732 44.6964C42.7901 44.8777 42.8255 45.2039 42.6489 45.4265C42.5479 45.5508 42.4016 45.6181 42.2553 45.6181L42.2502 45.6129Z" fill="#231F20"/>
<path d="M39.4093 43.2777C39.1318 43.2777 38.9047 43.5107 38.9047 43.7955C38.9047 46.778 36.5381 49.2065 33.6316 49.2065C30.9825 49.2065 28.7925 47.187 28.4242 44.5722C30.0944 43.9404 33.667 40.9683 33.667 39.2129C33.667 37.2401 32.1077 35.6453 30.1903 35.6453H25.6186C23.696 35.6453 22.1419 37.2453 22.1419 39.2129C22.1419 40.9786 25.6489 43.9819 27.3796 44.5825C27.0062 47.1922 24.8163 49.2065 22.1722 49.2065C19.2858 49.2065 16.9344 46.8091 16.9041 43.8524C18.428 43.2466 19.7047 43.055 19.7248 43.0498C20.0024 43.0084 20.1941 42.7495 20.1537 42.4647C20.1134 42.1799 19.8611 41.9832 19.5836 42.0246C19.4372 42.0453 15.9807 42.5527 13.4072 44.6912C13.1903 44.8725 13.1549 45.1987 13.3315 45.4213C13.4325 45.5456 13.5788 45.6129 13.7251 45.6129C13.8361 45.6129 13.9472 45.5767 14.043 45.499C14.6284 45.0123 15.2743 44.6136 15.9151 44.2977C16.1624 47.622 18.8721 50.2472 22.1722 50.2472C23.8525 50.2472 25.3764 49.5689 26.5016 48.4608C27.2888 47.6893 28.52 47.6893 29.3072 48.4608C30.4325 49.5689 31.9614 50.2472 33.6367 50.2472C37.0982 50.2472 39.919 47.3579 39.919 43.8006C39.919 43.5158 39.6919 43.2828 39.4144 43.2828L39.4093 43.2777Z" fill="#231F20"/>
<path d="M3.93084 24.0621C2.93678 24.0621 1.99317 23.6997 1.60968 23.3476C0.862867 22.6537 -0.751856 14.6693 0.40368 11.4485C0.908281 10.035 1.80142 9.7191 2.46245 9.69839C4.97536 9.6259 5.49006 9.28933 7.0089 8.28997C7.69516 7.83949 8.55298 7.27509 9.84476 6.56052C14.3155 4.0958 19.7349 8.48674 19.962 8.67314C20.179 8.85437 20.2143 9.17541 20.0377 9.40324C19.8661 9.6259 19.5432 9.66214 19.3262 9.48609C19.2757 9.44467 14.1944 5.33852 10.314 7.47703C9.05254 8.17088 8.2149 8.72492 7.54378 9.16505C5.93915 10.2214 5.27308 10.6563 2.48264 10.7392C2.2152 10.7443 1.82161 10.8272 1.49866 11.4485C0.15138 14.0427 1.88216 21.789 2.31107 22.6071C2.73494 22.9385 4.43039 23.3579 5.3084 22.5761C7.36212 20.7379 8.45206 18.5942 9.41585 16.699C10.4906 14.5812 11.5049 12.5825 13.6141 11.5469C13.8664 11.4227 14.1641 11.5314 14.2852 11.7903C14.4064 12.0492 14.3004 12.3599 14.0481 12.479C12.2416 13.3644 11.3485 15.1301 10.309 17.1754C9.30484 19.1534 8.16949 21.3903 5.96943 23.3579C5.38914 23.8757 4.64233 24.0673 3.92075 24.0673L3.93084 24.0621Z" fill="#231F20"/>
<path d="M46.7967 21.7786C46.5343 21.7786 46.3173 21.5715 46.2921 21.3023C46.2719 21.0641 46.4182 20.8466 46.6301 20.7689C46.7311 20.6964 47.3517 20.1476 48.6637 17.2427C49.688 14.9748 49.461 12.2408 49.2894 10.2421C49.1834 8.95792 49.1027 8.03624 49.3399 7.44595C49.5316 6.97475 51.1362 2.78576 48.3761 1.44466C42.8456 -1.23755 34.4945 9.96245 34.4087 10.0764C34.2422 10.3042 33.9243 10.3508 33.7023 10.1748C33.4802 10.0039 33.4348 9.67766 33.6064 9.44983C33.9697 8.95792 42.5429 -2.53204 48.81 0.507439C51.55 1.83818 51.3128 5.2919 50.2734 7.84466C50.1321 8.19676 50.2078 9.14433 50.2935 10.154C50.4702 12.2667 50.7124 15.1612 49.577 17.6828C48.371 20.3495 47.4526 21.7217 46.837 21.7786C46.8219 21.7786 46.8068 21.7786 46.7967 21.7786Z" fill="#231F20"/>
<path d="M39.8332 7.59093C39.697 7.5754 39.6364 7.4097 39.7172 7.30096C40.6809 5.98575 44.7834 0.854361 48.4367 3.15339C49.8748 4.05436 47.1146 4.07507 47.9623 11.723C48.3812 15.4977 46.2669 20.0751 44.8439 19.6919C43.4209 19.3087 41.6195 14.7055 40.0855 14.1618C38.5515 13.6181 39.4144 12.8259 40.8979 12.7171C41.3723 12.6809 40.2167 11.5987 39.2428 11.4537C38.168 11.2932 40.2975 9.84336 41.4631 9.1754C42.2402 8.73009 40.7566 7.72038 39.8383 7.59611L39.8332 7.59093Z" fill="#F38299"/>
<path d="M45.0155 20.2252C44.9044 20.2252 44.8035 20.2097 44.7177 20.189C43.8195 19.9508 43.0172 18.7081 42.0888 17.2738C41.3924 16.1968 40.5296 14.8608 39.924 14.6434C38.8946 14.2809 38.7382 13.7579 38.7836 13.3851C38.8543 12.8362 39.3942 12.4997 40.035 12.3288C39.7827 12.1579 39.4648 12.0026 39.1671 11.956C38.607 11.8731 38.4809 11.5055 38.4556 11.3502C38.4153 11.1172 38.2891 10.4181 41.1048 8.7767C40.8878 8.54369 40.2873 8.1657 39.7726 8.09838C39.5355 8.06732 39.3286 7.9068 39.2327 7.67897C39.1369 7.45113 39.1722 7.18188 39.3185 6.98511C40.5195 5.34887 44.7379 0.212299 48.7041 2.70291C49.6527 3.29838 49.3802 3.93528 49.1128 4.55146C48.7142 5.47832 47.9724 7.19741 48.4669 11.6505C48.8101 14.7676 47.5031 18.4906 46.1054 19.7385C45.6866 20.1113 45.3132 20.2201 45.0205 20.2201L45.0155 20.2252ZM39.8786 13.499C39.9543 13.5456 40.0704 13.6026 40.252 13.6699C41.1805 13.9961 42.0282 15.3113 42.9315 16.7042C43.6076 17.7502 44.4503 19.0498 44.97 19.1896C45.071 19.2155 45.2476 19.1327 45.4393 18.967C46.4838 18.035 47.7908 14.7728 47.4628 11.7799C46.938 7.04725 47.7857 5.08479 48.1894 4.1424C48.255 3.99223 48.3307 3.811 48.3509 3.72298C48.3256 3.69709 48.2752 3.65566 48.1743 3.59353C45.1719 1.70356 41.6447 5.65955 40.4286 7.20777C41.1805 7.46667 42.0484 8.04143 42.1695 8.68868C42.2401 9.06667 42.0686 9.41877 41.7103 9.62589C40.8222 10.1385 40.0653 10.6822 39.6869 11.0343C40.5296 11.3191 41.5388 12.0492 41.5135 12.6498C41.5034 12.9709 41.2663 13.2091 40.9332 13.2298C40.3933 13.2712 40.0451 13.4006 39.8786 13.499Z" fill="#231F20"/>
</g>
<defs>
<clipPath id="clip0_9_1486">
<rect width="51" height="56" fill="white"/>
</clipPath>
</defs>
</svg>
