<svg width="45" height="32" viewBox="0 0 45 32" fill="none" xmlns="http://www.w3.org/2000/svg">
<mask id="path-1-inside-1_23_273" fill="white">
<rect width="44.5921" height="31.4043" rx="1"/>
</mask>
<rect width="44.5921" height="31.4043" rx="1" fill="white" stroke="currentColor" stroke-width="6" mask="url(#path-1-inside-1_23_273)"/>
<rect x="0.5" y="0.5" width="43.5921" height="5.10638" rx="0.5" fill="currentColor" stroke="currentColor"/>
<ellipse cx="34.6301" cy="3.0532" rx="1.42315" ry="1.30851" fill="white"/>
<ellipse cx="38.4252" cy="3.0532" rx="1.42315" ry="1.30851" fill="white"/>
<ellipse cx="42.2202" cy="3.0532" rx="1.42315" ry="1.30851" fill="white"/>
<line x1="1" y1="-1" x2="9.2501" y2="-1" transform="matrix(-0.833058 0.553186 -0.833058 -0.553186 16.1522 11.1915)" stroke="currentColor" stroke-width="2" stroke-linecap="round"/>
<line x1="1" y1="-1" x2="9.2501" y2="-1" transform="matrix(0.833058 0.553186 -0.833058 0.553186 7.61328 16.8617)" stroke="currentColor" stroke-width="2" stroke-linecap="round"/>
<line x1="1" y1="-1" x2="9.2501" y2="-1" transform="matrix(0.833058 -0.553186 0.833058 0.553186 27.5374 22.5319)" stroke="currentColor" stroke-width="2" stroke-linecap="round"/>
<line x1="1" y1="-1" x2="9.2501" y2="-1" transform="matrix(-0.833058 -0.553186 0.833058 -0.553186 36.0764 16.8617)" stroke="currentColor" stroke-width="2" stroke-linecap="round"/>
<line x1="1" y1="-1" x2="18.0263" y2="-1" transform="matrix(-0.398929 0.916982 -0.938539 -0.345174 24.6911 7.70215)" stroke="currentColor" stroke-width="2" stroke-linecap="round"/>
</svg>
